<svg width="26" height="35" viewBox="0 0 26 35" fill="none" xmlns="http://www.w3.org/2000/svg">
<path d="M0 19C0 16.7909 1.79086 15 4 15H16C18.2091 15 20 16.7909 20 19V31C20 33.2091 18.2091 35 16 35H4C1.79086 35 0 33.2091 0 31V19Z" fill="#1D1B20"/>
<path d="M1.4005 27.759C1.5875 27.737 1.73967 27.605 1.857 27.363C1.978 27.1173 2.0935 26.7122 2.2035 26.1475L2.737 23.37H3.9305L3.397 26.1475C3.26133 26.8662 3.08167 27.3667 2.858 27.649C2.74067 27.7957 2.60683 27.8983 2.4565 27.957C2.30983 28.0157 2.15583 28.045 1.9945 28.045C1.83317 28.045 1.70117 28.0157 1.5985 27.957C1.49217 27.8983 1.42617 27.8323 1.4005 27.759ZM4.25195 26.45C4.25195 26.351 4.27762 26.1768 4.32895 25.9275L4.62045 24.4425H4.29595L4.31795 24.2775C4.75795 24.1455 5.19062 23.9182 5.61595 23.5955H5.87995L5.74795 24.195H6.17695L6.12745 24.4425H5.70395L5.42345 25.9275C5.37578 26.1548 5.35195 26.307 5.35195 26.384C5.35195 26.56 5.42895 26.6663 5.58295 26.703C5.54628 26.8277 5.46195 26.9267 5.32995 27C5.19795 27.0733 5.03845 27.11 4.85145 27.11C4.66445 27.11 4.51778 27.0513 4.41145 26.934C4.30512 26.8167 4.25195 26.6553 4.25195 26.45ZM7.98275 25.4545C8.11475 25.2198 8.18075 24.9833 8.18075 24.745C8.18075 24.5873 8.12392 24.5085 8.01025 24.5085C7.92225 24.5085 7.83242 24.5837 7.74075 24.734C7.64542 24.8843 7.58309 25.0567 7.55375 25.251L7.26775 27L6.12925 27.11L6.69025 24.195L7.59775 24.085L7.49875 24.6405C7.67842 24.2702 7.96992 24.085 8.37325 24.085C8.58592 24.085 8.74909 24.14 8.86275 24.25C8.98009 24.36 9.03875 24.5287 9.03875 24.756C9.03875 24.9797 8.96359 25.163 8.81325 25.306C8.66659 25.449 8.46675 25.5205 8.21375 25.5205C8.10375 25.5205 8.02675 25.4985 7.98275 25.4545ZM10.4384 27.11C9.63175 27.11 9.22842 26.7305 9.22842 25.9715C9.22842 25.4325 9.37692 24.9888 9.67392 24.6405C9.98925 24.2702 10.4201 24.085 10.9664 24.085C11.3624 24.085 11.6613 24.1767 11.8629 24.36C12.0646 24.5433 12.1654 24.8275 12.1654 25.2125C12.1654 25.7992 12.0078 26.263 11.6924 26.604C11.3844 26.9413 10.9664 27.11 10.4384 27.11ZM10.5814 24.7175C10.5374 24.8165 10.4971 24.9412 10.4604 25.0915C10.4274 25.2382 10.3889 25.4288 10.3449 25.6635C10.3009 25.8982 10.2789 26.1603 10.2789 26.45C10.2789 26.5453 10.2936 26.6242 10.3229 26.6865C10.3559 26.7488 10.4146 26.78 10.4989 26.78C10.5833 26.78 10.6511 26.7598 10.7024 26.7195C10.7574 26.6792 10.8051 26.6113 10.8454 26.516C10.9188 26.3473 10.9848 26.1072 11.0434 25.7955C11.1021 25.4802 11.1333 25.2547 11.1369 25.119C11.1443 24.9833 11.1479 24.866 11.1479 24.767C11.1479 24.6643 11.1333 24.58 11.1039 24.514C11.0746 24.448 11.0178 24.415 10.9334 24.415C10.8528 24.415 10.7849 24.4407 10.7299 24.492C10.6749 24.5433 10.6254 24.6185 10.5814 24.7175ZM14.9254 27.11C14.4818 27.11 14.2599 26.9377 14.2599 26.593C14.2636 26.4977 14.2801 26.3693 14.3094 26.208L14.4084 25.702C14.5074 25.2253 14.5569 24.9338 14.5569 24.8275C14.5569 24.6148 14.4946 24.5085 14.3699 24.5085C14.1609 24.5085 14.0014 24.7817 13.8914 25.328L13.5669 27L12.4614 27.11L13.0334 24.1895L13.9354 24.085L13.8474 24.624C14.0198 24.2647 14.3699 24.085 14.8979 24.085C15.1546 24.085 15.3361 24.14 15.4424 24.25C15.5524 24.3563 15.6074 24.5305 15.6074 24.7725C15.6074 24.9998 15.5488 25.3793 15.4314 25.911C15.3764 26.1493 15.3489 26.3143 15.3489 26.406C15.3489 26.494 15.3728 26.5637 15.4204 26.615C15.4718 26.6663 15.5341 26.6957 15.6074 26.703C15.5708 26.8277 15.4883 26.9267 15.3599 27C15.2353 27.0733 15.0904 27.11 14.9254 27.11ZM16.5477 24.701C16.6723 24.525 16.8282 24.3783 17.0152 24.261C17.2058 24.1437 17.4167 24.085 17.6477 24.085C17.8787 24.085 18.0492 24.1217 18.1592 24.195L19.2372 24.085L18.8632 26.197C18.7348 26.9157 18.535 27.4162 18.2637 27.6985C18.0033 27.9662 17.6202 28.1 17.1142 28.1C16.7292 28.1 16.4267 28.0395 16.2067 27.9185C15.9867 27.7975 15.8767 27.6362 15.8767 27.4345C15.8767 27.2842 15.9335 27.165 16.0472 27.077C16.1608 26.9927 16.3057 26.9505 16.4817 26.9505C16.6357 26.9505 16.7713 26.9853 16.8887 27.055C16.9583 27.0917 17.0097 27.1357 17.0427 27.187C16.9583 27.2603 16.9162 27.3575 16.9162 27.4785C16.9162 27.6362 16.9895 27.715 17.1362 27.715C17.3818 27.715 17.5743 27.4253 17.7137 26.846C17.754 26.6883 17.7907 26.5307 17.8237 26.373C17.6587 26.5747 17.3892 26.6755 17.0152 26.6755C16.7548 26.6755 16.5495 26.6132 16.3992 26.4885C16.2488 26.3638 16.1737 26.1548 16.1737 25.8615C16.1737 25.6782 16.2048 25.4838 16.2672 25.2785C16.3295 25.0695 16.423 24.877 16.5477 24.701ZM17.2627 25.878C17.2627 26.1273 17.3268 26.252 17.4552 26.252C17.5432 26.252 17.6293 26.2043 17.7137 26.109C17.7797 26.032 17.8255 25.9367 17.8512 25.823L18.1317 24.4095C18.1133 24.4058 18.095 24.4003 18.0767 24.393C18.04 24.3783 17.9978 24.371 17.9502 24.371C17.7265 24.371 17.5487 24.5543 17.4167 24.921C17.314 25.207 17.2627 25.526 17.2627 25.878Z" fill="#F5F5F5"/>
</svg>
