<svg width="20" height="20" viewBox="0 0 20 20" fill="none" xmlns="http://www.w3.org/2000/svg">
<path d="M0 4C0 1.79086 1.79086 0 4 0H16C18.2091 0 20 1.79086 20 4V16C20 18.2091 18.2091 20 16 20H4C1.79086 20 0 18.2091 0 16V4Z" fill="#1D1B20"/>
<path d="M3.583 15.794C4.025 15.742 4.38467 15.43 4.662 14.858C4.948 14.2773 5.221 13.3197 5.481 11.985L6.742 5.42H9.563L8.302 11.985C7.98133 13.6837 7.55667 14.8667 7.028 15.534C6.75067 15.8807 6.43433 16.1233 6.079 16.262C5.73233 16.4007 5.36833 16.47 4.987 16.47C4.60567 16.47 4.29367 16.4007 4.051 16.262C3.79967 16.1233 3.64367 15.9673 3.583 15.794ZM11.1548 7.669C10.8601 7.44367 10.7128 7.09267 10.7128 6.616C10.7128 6.13067 10.8688 5.76233 11.1808 5.511C11.5015 5.25967 11.9348 5.134 12.4808 5.134C12.8275 5.134 13.4125 5.19467 14.2358 5.316L15.1198 5.446C15.4145 5.48067 15.7135 5.498 16.0168 5.498C16.3288 5.498 16.5888 5.433 16.7968 5.303C17.1088 5.58033 17.2648 5.91833 17.2648 6.317C17.2648 6.71567 17.0871 7.058 16.7318 7.344C16.3678 7.64733 15.9518 7.799 15.4838 7.799C15.2585 7.799 14.9638 7.76867 14.5998 7.708C14.1751 9.04267 13.9628 10.1737 13.9628 11.101C13.9628 12.0283 14.1968 12.7347 14.6648 13.22C14.4481 13.61 14.1795 13.8787 13.8588 14.026C13.5381 14.182 13.1351 14.26 12.6498 14.26C12.1731 14.26 11.7831 14.13 11.4798 13.87C11.1851 13.6013 11.0378 13.194 11.0378 12.648C11.0378 12.0153 11.2111 11.179 11.5578 10.139C11.9045 9.10767 12.3378 8.19767 12.8578 7.409C12.6065 7.383 12.3508 7.37 12.0908 7.37C11.5535 7.37 11.2415 7.46967 11.1548 7.669Z" fill="white"/>
</svg>
